<?xml version="1.0" encoding="UTF-8"?>
<svg width="430px" height="431px" viewBox="0 0 430 431" version="1.1" xmlns="http://www.w3.org/2000/svg" xmlns:xlink="http://www.w3.org/1999/xlink">
    <!-- Generator: Sketch 50.2 (55047) - http://www.bohemiancoding.com/sketch -->
    <title>home-featured-right</title>
    <desc>Created with Sketch.</desc>
    <defs></defs>
    <g id="Page-1" stroke="none" stroke-width="1" fill="none" fill-rule="evenodd">
        <g id="home-featured-right" transform="translate(-1.000000, 0.000000)" fill="#231F20" fill-rule="nonzero">
            <path d="M215.26,430.53 C128.598445,430.530244 50.4703028,378.325937 17.3076498,298.260567 C-15.8550031,218.195197 2.47888291,126.036829 63.76,64.76 C117.741492,9.92142914 196.984455,-11.7582399 271.364276,7.96262915 C345.744096,27.6834982 403.836502,85.7759043 423.557371,160.155724 C443.27824,234.535545 421.598571,313.778508 366.76,367.76 C326.669896,408.077087 272.1165,430.679838 215.26,430.53 Z M215.26,82 C141.23,82 81,142.23 81,216.26 C81,290.29 141.23,350.52 215.26,350.52 C289.29,350.52 349.53,290.3 349.53,216.26 C349.53,142.22 289.3,82 215.26,82 Z" id="Shape"></path>
        </g>
    </g>
</svg>