<?xml version="1.0" encoding="UTF-8"?>
<svg width="566px" height="125px" viewBox="0 0 566 125" version="1.1" xmlns="http://www.w3.org/2000/svg" xmlns:xlink="http://www.w3.org/1999/xlink">
    <!-- Generator: Sketch 50.2 (55047) - http://www.bohemiancoding.com/sketch -->
    <title>home-summary-overlay</title>
    <desc>Created with Sketch.</desc>
    <defs></defs>
    <g id="Page-1" stroke="none" stroke-width="1" fill="none" fill-rule="evenodd">
        <g id="home-summary-overlay" fill="#FE5F59" fill-rule="nonzero">
            <path d="M555.87,35.92 C539.73,35.92 533.37,44.48 533.37,64.27 L533.37,100 C532.83,112.3 528.88,116.87 518.82,116.87 C514.452552,116.956018 510.288562,115.027084 507.53,111.64 C505.115861,108.621975 504.233518,104.656971 505.14,100.9 L515.77,51.8 L515.77,51.39 C515.77,42.2938702 508.39613,34.92 499.3,34.92 C490.20387,34.92 482.83,42.2938702 482.83,51.39 L482.83,96.83 C482.83,101.690106 478.890106,105.63 474.03,105.63 C469.169894,105.63 465.23,101.690106 465.23,96.83 L465.23,89.83 C465.196948,80.7462647 457.823795,73.3999399 448.74,73.4 L267.25,73.4 L170.93,73.48 C165.76,73.48 161.51,69.68 160.1,63.75 L148.32,18.9 L148.25,18.65 C145.75,10.93 139.88,5.25 131.25,2.22 C127.388447,0.865489687 123.340561,0.116630813 119.25,-7.10542736e-15 L115.41,-7.10542736e-15 L115.41,96.73 C115.41,99.8739373 113.73273,102.779055 111.01,104.351024 C108.287271,105.922993 104.932729,105.922993 102.21,104.351024 C99.4872704,102.779055 97.8099999,99.8739373 97.81,96.73 L97.81,48 C97.81,38.9038702 90.4361298,31.53 81.34,31.53 C72.2438702,31.53 64.87,38.9038702 64.87,48 L64.87,64.17 C57.6986212,55.9759934 46.5525979,52.4713546 35.9823829,55.0868804 C25.412168,57.7024062 17.1866245,66.0004037 14.6638961,76.5931493 C12.1411678,87.185895 15.7434182,98.3007553 24,105.4 L0,105.4 L0,112.88 L41.64,112.88 C42.26,112.88 42.88,112.95 43.51,112.95 C59.5762493,112.927955 72.5934747,99.9062559 72.61,83.84 L72.61,48 C72.61,43.1398942 76.5498942,39.2 81.41,39.2 C86.2701058,39.2 90.21,43.1398942 90.21,48 L90.21,96.7 C90.21,105.79613 97.5838702,113.17 106.68,113.17 C115.77613,113.17 123.15,105.79613 123.15,96.7 L123.15,8 C128.49,8.83 137.82,11.6 140.9,20.87 L152.63,65.53 C154.85,74.85 162.2,81.11 170.92,81.11 L448.74,81.03 C453.597821,81.0355109 457.534489,84.9721787 457.54,89.83 L457.54,96.83 C457.54,105.92613 464.91387,113.3 474.01,113.3 C483.10613,113.3 490.48,105.92613 490.48,96.83 L490.48,51.38 C490.377828,46.5198944 494.234894,42.4971731 499.095,42.3950005 C503.955106,42.2928278 507.977827,46.1498944 508.08,51.01 L497.65,99.18 C496.215556,105.200294 497.635898,111.545718 501.5,116.38 C505.707842,121.616383 512.093078,124.622719 518.81,124.53 C540,124.53 540.81,106.24 541.03,100.23 L541.03,64.23 C541.03,48.6 546.11,43.65 558.93,43.65 L565.74,43.51 L565.74,35.92 L555.87,35.92 Z M43.51,105.27 C34.8365108,105.274045 27.0150079,100.051839 23.6939387,92.0393532 C20.3728694,84.0268673 22.2065492,74.8027167 28.3396329,68.6696329 C34.4727167,62.5365492 43.6968673,60.7028694 51.7093532,64.0239387 C59.7218392,67.3450079 64.9440445,75.1665108 64.94,83.84 C64.9234757,95.6686108 55.3386108,105.253476 43.51,105.27 Z" id="Shape"></path>
        </g>
    </g>
</svg>