<?xml version="1.0" encoding="UTF-8"?>
<svg width="187px" height="53px" viewBox="0 0 187 53" version="1.1" xmlns="http://www.w3.org/2000/svg" xmlns:xlink="http://www.w3.org/1999/xlink">
    <!-- Generator: Sketch 50.2 (55047) - http://www.bohemiancoding.com/sketch -->
    <title>logo-footer</title>
    <desc>Created with Sketch.</desc>
    <defs>
        <polygon id="path-1" points="0.109049556 0.0216892308 52.4765323 0.0216892308 52.4765323 53 0.109049556 53"></polygon>
    </defs>
    <g id="Page-1" stroke="none" stroke-width="1" fill="none" fill-rule="evenodd">
        <g id="logo-footer">
            <g id="logo-img">
                <g id="Group-3" transform="translate(0.548823, 0.000000)">
                    <g id="Fill-1-Clipped">
                        <mask id="mask-2" fill="white">
                            <use xlink:href="#path-1"></use>
                        </mask>
                        <g id="path-1"></g>
                        <path d="M26.2927103,53.0000978 C11.8319171,53.0000978 0.109049556,41.1404917 0.109049556,26.5108609 C0.109049556,11.8812302 11.8319171,0.021624 26.2927103,0.021624 C40.7536647,0.021624 52.4765323,11.8812302 52.4765323,26.5108609 C52.4765323,41.1404917 40.7536647,53.0000978 26.2927103,53.0000978 Z" id="Fill-1" fill="#FFFFFF" fill-rule="nonzero" mask="url(#mask-2)"></path>
                    </g>
                </g>
                <g id="Group-12" transform="translate(2.000000, 10.000000)" fill="#041E5C" fill-rule="nonzero">
                    <path d="M12.2304572,4.000268 C11.2339912,4.000268 10.4233288,4.82348031 10.4233288,5.83537262 C10.4233288,6.83780646 11.0067552,7.74973262 11.4963966,8.33844031 C11.7618532,8.65758185 12.0260251,8.91605877 12.2296542,9.09935723 C12.8530677,8.53820954 14.0375855,7.28153877 14.0375855,5.83537262 C14.0375855,4.82348031 13.2269231,4.000268 12.2304572,4.000268 Z M12.2304572,10.7441511 L11.85612,10.4716495 C11.7451517,10.3907634 9.13860233,8.46237877 9.13860233,5.83537262 C9.13860233,4.104148 10.5256251,2.69565262 12.2304572,2.69565262 C13.9352892,2.69565262 15.322312,4.104148 15.322312,5.83537262 C15.322312,8.46237877 12.7157626,10.3907634 12.6047943,10.4716495 L12.2304572,10.7441511 Z" id="Fill-4"></path>
                    <path d="M32.6485507,10.3607572 C31.83291,10.3607572 31.1691882,11.0347542 31.1691882,11.8631849 C31.1691882,12.6916157 31.83291,13.3656126 32.6485507,13.3656126 C33.464352,13.3656126 34.1280738,12.6916157 34.1280738,11.8631849 C34.1280738,11.0347542 33.464352,10.3607572 32.6485507,10.3607572 M32.6485507,14.670228 C31.1245439,14.670228 29.8844617,13.410948 29.8844617,11.8631849 C29.8844617,10.3154218 31.1245439,9.05614185 32.6485507,9.05614185 C34.1727181,9.05614185 35.4128003,10.3154218 35.4128003,11.8631849 C35.4128003,13.410948 34.1727181,14.670228 32.6485507,14.670228" id="Fill-6"></path>
                    <polygon id="Fill-8" points="38.4067269 29.8108277 49 29.8108277 49 28.5062123 38.4067269 28.5062123"></polygon>
                    <path d="M24.2306856,25.9098972 L24.2306856,13.3296542 C24.2306856,12.6326634 24.0395826,11.0118418 22.2693901,11.0118418 C20.2498001,11.0118418 20.1475037,12.9425095 20.1475037,13.3296542 L20.1475037,27.0038172 C20.1475037,28.5515803 18.9075821,29.8108603 17.3834147,29.8108603 C15.8679193,29.8108603 14.6331365,28.565768 14.6193257,27.0299095 L13.8162111,16.1846418 C13.8162111,14.565288 12.5637634,13.8430203 12.0447339,13.613408 C11.5901013,13.8666665 10.5363044,14.622528 10.5363044,16.1846418 L10.5327714,16.2531342 L9.41184759,27.0403465 C9.39257669,28.5713126 8.16004224,29.8108603 6.64791918,29.8108603 L0.974609375,29.8108603 L0.974609375,28.5062449 L6.64791918,28.5062449 C7.46372049,28.5062449 8.1274423,27.832248 8.1274423,27.0038172 L8.1309753,26.9353249 L9.25173855,16.1492542 C9.27165181,13.3162818 11.6808351,12.3366788 11.7837738,12.2962357 L11.9902936,12.2151865 L12.2021129,12.2802542 C13.2011483,12.5881434 15.0874479,13.7939342 15.1009376,16.1590388 L15.9038916,27.0038172 C15.9038916,27.832248 16.5676134,28.5062449 17.3834147,28.5062449 C18.1990555,28.5062449 18.8627773,27.832248 18.8627773,27.0038172 L18.8627773,13.3296542 C18.8627773,11.5848942 19.9289396,9.70722646 22.2693901,9.70722646 C24.6652444,9.70722646 25.5154121,11.6584418 25.5154121,13.3296542 L25.5154121,25.9098972 C25.5154121,27.1685249 26.3715217,28.5062449 27.9583195,28.5062449 C28.7752449,28.5062449 29.4190535,28.2399403 29.8719196,27.7146695 C30.4405716,27.0555126 30.6796913,26.0129618 30.5280936,24.8543003 C30.4916395,24.5760911 30.3188438,23.8771434 30.1360914,23.1372634 C29.7916242,21.7442603 29.3636497,20.0127095 29.280303,18.9344449 C29.2151032,18.4037926 29.3976949,17.8706942 29.808968,17.391248 C30.4709233,16.6198942 31.6800115,16.0602142 32.683704,16.0602142 C33.6408252,16.0602142 34.8259854,16.6107618 35.5017515,17.3692326 C35.9374344,17.8581372 36.1397788,18.3987372 36.087105,18.9323249 C35.99332,19.8802911 35.7370171,20.6100603 35.4890649,21.3156942 C35.1940596,22.1550511 34.888937,23.0227834 34.795152,24.3919772 C34.7734722,24.6741003 34.7734722,24.6741003 34.7734722,24.8021157 C34.7734722,26.8185618 36.3888552,28.4592788 38.3745605,28.4592788 C40.3604265,28.4592788 41.9758094,26.8185618 41.9758094,24.8021157 C41.9758094,22.7515865 40.4644893,21.1451157 38.5351513,21.1451157 L38.5351513,19.8405003 C41.1848997,19.8405003 43.2605359,22.0200234 43.2605359,24.8021157 C43.2605359,27.5378942 41.0687925,29.7638942 38.3745605,29.7638942 C35.6804891,29.7638942 33.4887458,27.5378942 33.4887458,24.8021157 C33.4887458,24.6228942 33.4900305,24.6043034 33.5141191,24.2957618 C33.6196273,22.7533803 33.9700364,21.7564911 34.2788525,20.8773434 C34.5213447,20.1873649 34.7307551,19.591808 34.8086416,18.8020265 C34.8240583,18.6475926 34.7318792,18.4496172 34.5489663,18.2444665 C34.116977,17.7594757 33.2801383,17.3648295 32.683704,17.3648295 C32.0508157,17.3648295 31.1956696,17.7611065 30.7776517,18.2485434 C30.6620263,18.3832449 30.5296995,18.5844818 30.5560364,18.7780542 C30.6316747,19.7839126 31.0654305,21.5384572 31.3819549,22.8197526 C31.590723,23.6638388 31.7556497,24.3306603 31.8015787,24.6824172 C32.001996,26.2137095 31.6509445,27.6324788 30.8385156,28.5744111 C30.1407486,29.3832726 29.1447644,29.8108603 27.9583195,29.8108603 C25.6250956,29.8108603 24.2306856,27.8275188 24.2306856,25.9098972 Z" id="Fill-10"></path>
                    <path d="M22.0606863,1.48691015 C21.1387344,1.48691015 20.3886148,2.24864246 20.3886148,3.18486708 L20.3886148,5.02763631 C20.3886148,5.964024 21.1387344,6.72575631 22.0606863,6.72575631 C22.9827987,6.72575631 23.7329184,5.964024 23.7329184,5.02763631 L23.7329184,3.18486708 C23.7329184,2.24864246 22.9827987,1.48691015 22.0606863,1.48691015 M22.0606863,8.03037169 C20.4303684,8.03037169 19.1038883,6.68335631 19.1038883,5.02763631 L19.1038883,3.18486708 C19.1038883,1.52931015 20.4303684,0.182294769 22.0606863,0.182294769 C23.6911648,0.182294769 25.0176448,1.52931015 25.0176448,3.18486708 L25.0176448,5.02763631 C25.0176448,6.68335631 23.6911648,8.03037169 22.0606863,8.03037169" id="Fill-11"></path>
                </g>
            </g>
            <path d="M85.2404734,22.1383722 L87.6081658,22.1383722 L87.6081658,36.0878046 L85.2404734,36.0878046 L85.2404734,22.1383722 Z M86.4243196,18.0950584 C85.9733283,18.0950584 85.5787168,17.9434357 85.2404734,17.6401856 C84.9022299,17.3369356 84.7331107,16.9382239 84.7331107,16.4440387 C84.7331107,15.9498534 84.9022299,15.5455261 85.2404734,15.2310445 C85.5787168,14.916563 85.9733283,14.7593246 86.4243196,14.7593246 C86.8753109,14.7593246 87.2699224,14.916563 87.6081658,15.2310445 C87.9464093,15.5455261 88.1155285,15.9498534 88.1155285,16.4440387 C88.1155285,16.9382239 87.9464093,17.3369356 87.6081658,17.6401856 C87.2699224,17.9434357 86.8753109,18.0950584 86.4243196,18.0950584 Z M97.3833532,36.3573589 C95.8274333,36.3573589 94.553402,36.0372664 93.5612211,35.3970719 C92.5690403,34.7568773 91.847465,33.9987636 91.3964738,33.1227079 L93.2229794,32.0781852 C93.6288715,32.7520741 94.153141,33.3136399 94.7958036,33.7628992 C95.4384662,34.2121585 96.2671503,34.4367848 97.2818807,34.4367848 C98.2289624,34.4367848 98.9618123,34.2514681 99.4804523,33.8808292 C99.9990922,33.5101903 100.258408,32.9991654 100.258408,32.3477394 C100.258408,31.965869 100.179486,31.6513922 100.021639,31.4042995 C99.8637922,31.1572069 99.6326626,30.9438119 99.3282435,30.7641082 C99.0238243,30.5844045 98.6461248,30.4215504 98.1951335,30.2755411 C97.7441422,30.1295318 97.2142354,29.9666778 96.6053971,29.786974 C96.0642076,29.6297333 95.5343008,29.4500322 95.0156608,29.2478655 C94.4970208,29.0456988 94.0460363,28.7873786 93.6626937,28.4728971 C93.2793511,28.1584155 92.9692992,27.7709352 92.7325288,27.3104444 C92.4957583,26.8499535 92.3773749,26.2940035 92.3773749,25.6425774 C92.3773749,24.4295772 92.8227221,23.4917625 93.7134299,22.829105 C94.6041377,22.1664474 95.6921379,21.8351237 96.9774631,21.8351237 C98.0598422,21.8351237 98.9843605,22.0372873 99.7510457,22.4416207 C100.517731,22.8459541 101.149109,23.3962885 101.6452,24.0926405 L100.021639,25.3393289 C99.6608461,24.8451436 99.2324108,24.4576633 98.7363203,24.1768762 C98.2402299,23.8960891 97.65395,23.7556977 96.9774631,23.7556977 C96.2107779,23.7556977 95.6132234,23.9185518 95.1847817,24.2442648 C94.7563399,24.5699778 94.5421223,25.0023834 94.5421223,25.5414946 C94.5421223,25.8784391 94.5984954,26.159222 94.7112432,26.3838516 C94.823991,26.6084813 95.0100221,26.8050293 95.2693421,26.9735015 C95.5286621,27.1419738 95.8725378,27.2992122 96.3009795,27.4452215 C96.7294213,27.5912308 97.2480535,27.7540848 97.8568917,27.9337886 C98.4431804,28.0910293 99.0181857,28.276346 99.5819248,28.4897442 C100.145664,28.7031424 100.641747,28.9726939 101.070189,29.298407 C101.49863,29.62412 101.842506,30.0228316 102.101826,30.4945539 C102.361146,30.9662762 102.490804,31.5390733 102.490804,32.2129623 C102.490804,33.4034995 102.079281,34.3918552 101.256222,35.178059 C100.433162,35.9642629 99.1422193,36.3573589 97.3833532,36.3573589 Z M106.011594,36.0878046 L106.011594,17.3415318 L111.214367,17.3415318 C116.472489,17.3415318 119.627363,20.0707686 119.627363,24.5919285 C119.627363,29.1130884 116.444815,31.8147571 111.214367,31.8147571 L109.885999,31.8147571 L109.885999,36.0878046 L106.011594,36.0878046 Z M109.885999,28.4238872 L111.10367,28.4238872 C114.258543,28.4238872 115.642259,27.155757 115.642259,24.5919285 C115.642259,22.0005319 114.203194,20.7324017 111.10367,20.7324017 L109.885999,20.7324017 L109.885999,28.4238872 Z M122.643864,36.0878046 L122.643864,17.3415318 L126.51827,17.3415318 L126.51827,32.6969347 L134.529475,32.6969347 L132.992013,36.0878046 L122.643864,36.0878046 Z M136.272958,36.0878046 L144.547582,17.1761235 L144.879674,17.1761235 L153.48639,36.0878046 L149.418263,36.0878046 L148.532685,33.9650649 L140.894571,33.9650649 L140.008992,36.0878046 L136.272958,36.0878046 Z M142.195264,30.7396033 L147.148969,30.7396033 L145.792927,27.4865736 C145.23944,26.1633072 144.658279,24.1232717 144.658279,24.1232717 C144.658279,24.1232717 144.104793,26.1633072 143.551306,27.4865736 L142.195264,30.7396033 Z M163.933961,36.3359171 C158.537467,36.3359171 154.247946,32.2558459 154.247946,26.7146682 C154.247946,21.1734905 158.537467,17.1209874 163.933961,17.1209874 C167.337903,17.1209874 169.773244,18.3339815 171.461378,20.9529461 L168.500225,23.0481178 C167.614646,21.6145793 166.092558,20.5945615 163.933961,20.5945615 C160.530018,20.5945615 158.233049,23.2135261 158.233049,26.7146682 C158.233049,30.2158103 160.530018,32.889911 163.933961,32.889911 C166.369301,32.889911 167.725343,31.732053 168.776968,30.1331062 L171.79347,32.2007098 C170.160684,34.7369703 167.559298,36.3359171 163.933961,36.3359171 Z M174.159112,36.0878046 L174.159112,17.3415318 L186.612559,17.3415318 L186.612559,20.7324017 L178.033518,20.7324017 L178.033518,26.6871002 L186.612559,26.6871002 L186.612559,29.9952659 L178.033518,29.9952659 L178.033518,32.6969347 L187,32.6969347 L187,36.0878046 L174.159112,36.0878046 Z" id="DisPLACE" fill="#FFFFFF" fill-rule="nonzero"></path>
            <path d="M66.3250706,17.3305192 L70.9155684,17.3305192 C72.4921109,17.3305192 73.9109779,17.5543621 75.1722118,18.0020547 C76.4334458,18.4497473 77.5091881,19.0886323 78.3994709,19.918729 C79.2897537,20.7488256 79.9713663,21.7514554 80.444329,22.9266485 C80.9172918,24.1018415 81.1537696,25.407592 81.1537696,26.843939 C81.1537696,28.2802861 80.9172918,29.5860365 80.444329,30.7612295 C79.9713663,31.9364226 79.2943905,32.9390524 78.4133815,33.7691491 C77.5323725,34.5992457 76.4566302,35.2381308 75.1861224,35.6858234 C73.9156147,36.1335159 72.4921109,36.3573589 70.9155684,36.3573589 L66.3250706,36.3573589 L66.3250706,17.3305192 Z M70.7764624,34.5386168 C72.1675293,34.5386168 73.3823762,34.3520811 74.4210395,33.9790039 C75.4597028,33.6059268 76.3221513,33.0789632 77.008411,32.3980974 C77.6946706,31.7172316 78.2047208,30.9058009 78.5385769,29.9637811 C78.872433,29.0217613 79.0393585,27.9818243 79.0393585,26.843939 C79.0393585,25.7060537 78.872433,24.6661167 78.5385769,23.7240969 C78.2047208,22.7820771 77.6946706,21.9706465 77.008411,21.2897807 C76.3221513,20.6089148 75.4597028,20.0819513 74.4210395,19.7088741 C73.3823762,19.335797 72.1675293,19.1492612 70.7764624,19.1492612 L68.328197,19.1492612 L68.328197,34.5386168 L70.7764624,34.5386168 Z" id="Combined-Shape" stroke="#FFFFFF" stroke-width="0.5" fill="#FFFFFF" fill-rule="nonzero"></path>
        </g>
    </g>
</svg>