<?xml version="1.0" encoding="UTF-8"?>
<svg width="560px" height="128px" viewBox="0 0 560 128" version="1.1" xmlns="http://www.w3.org/2000/svg" xmlns:xlink="http://www.w3.org/1999/xlink">
    <!-- Generator: Sketch 50.2 (55047) - http://www.bohemiancoding.com/sketch -->
    <title>Group 2</title>
    <desc>Created with Sketch.</desc>
    <defs>
        <polygon id="path-1" points="0.265922574 0.0523815385 127.966542 0.0523815385 127.966542 128 0.265922574 128"></polygon>
    </defs>
    <g id="Symbols" stroke="none" stroke-width="1" fill="none" fill-rule="evenodd">
        <g id="Navigation" transform="translate(-96.000000, -26.000000)">
            <g id="Group-2" transform="translate(95.000000, 26.000000)">
                <g id="Group-4-Copy">
                    <g id="Group-3" transform="translate(0.846715, 0.000000)">
                        <mask id="mask-2" fill="white">
                            <use xlink:href="#path-1"></use>
                        </mask>
                        <g id="Clip-2"></g>
                        <path d="M127.966542,64.0262302 C127.966542,99.3581686 99.3797667,128.000236 64.1160356,128.000236 C28.8526976,128.000236 0.265922574,99.3581686 0.265922574,64.0262302 C0.265922574,28.6942917 28.8526976,0.052224 64.1160356,0.052224 C99.3797667,0.052224 127.966542,28.6942917 127.966542,64.0262302" id="Fill-1" fill="#FE5F59" mask="url(#mask-2)"></path>
                    </g>
                    <g id="Group-12" transform="translate(7.000000, 24.000000)" fill="#FEFEFE">
                        <path d="M27.2100364,9.811968 C24.7801063,9.811968 22.8032671,11.8001034 22.8032671,14.2439188 C22.8032671,16.6648911 24.2259804,18.8672788 25.4199944,20.2890634 C26.0673231,21.0598203 26.7115189,21.6840665 27.2080783,22.1267495 C28.7283021,20.7715249 31.6168056,17.7365465 31.6168056,14.2439188 C31.6168056,11.8001034 29.6399664,9.811968 27.2100364,9.811968 Z M27.2100364,26.0990818 L26.2971972,25.4409649 C26.0265958,25.2456172 19.6704,20.5883865 19.6704,14.2439188 C19.6704,10.062848 23.0527217,6.66119877 27.2100364,6.66119877 C31.367351,6.66119877 34.7496727,10.062848 34.7496727,14.2439188 C34.7496727,20.5883865 28.3934769,25.2456172 28.1228755,25.4409649 L27.2100364,26.0990818 Z" id="Fill-4"></path>
                        <path d="M77.0005371,25.1731495 C75.011558,25.1731495 73.3930406,26.8009157 73.3930406,28.8016542 C73.3930406,30.8023926 75.011558,32.4301588 77.0005371,32.4301588 C78.9899077,32.4301588 80.6084252,30.8023926 80.6084252,28.8016542 C80.6084252,26.8009157 78.9899077,25.1731495 77.0005371,25.1731495 M77.0005371,35.580928 C73.2841734,35.580928 70.2601734,32.539648 70.2601734,28.8016542 C70.2601734,25.0636603 73.2841734,22.0223803 77.0005371,22.0223803 C80.7172923,22.0223803 83.7412923,25.0636603 83.7412923,28.8016542 C83.7412923,32.539648 80.7172923,35.580928 77.0005371,35.580928" id="Fill-6"></path>
                        <polygon id="Fill-8" points="91.0421259 72.1469046 115.141602 72.1469046 115.141602 68.9961354 91.0421259 68.9961354"></polygon>
                        <path d="M56.4731692,62.7257895 L56.4731692,32.3433157 C56.4731692,30.6600172 56.0071552,26.7455803 51.6904559,26.7455803 C46.7655888,26.7455803 46.5161343,31.4083249 46.5161343,32.3433157 L46.5161343,65.3677095 C46.5161343,69.1057034 43.4925259,72.1469834 39.7757706,72.1469834 C36.0801622,72.1469834 33.0690853,69.139968 33.035407,65.4307249 L31.0769734,39.2383803 C31.0769734,35.327488 28.0228196,33.5831434 26.7571413,33.028608 C25.6484979,33.6402511 23.0787636,35.465728 23.0787636,39.2383803 L23.0701483,39.4037957 L20.3367217,65.4559311 C20.2897287,69.1533588 17.2841343,72.1469834 13.5967497,72.1469834 L0.00390625,72.1469834 L0.00390625,68.9962142 L13.5967497,68.9962142 C15.5861203,68.9962142 17.2046378,67.368448 17.2046378,65.3677095 L17.2132531,65.2022942 L19.9462881,39.1529157 C19.9948476,32.3110203 25.8697566,29.9451865 26.1207776,29.8475126 L26.624386,29.6517711 L27.1409175,29.8089157 C29.5771133,30.5524972 34.1769455,33.4645957 34.2098406,39.1765465 L36.1678825,65.3677095 C36.1678825,67.368448 37.7864,68.9962142 39.7757706,68.9962142 C41.7647497,68.9962142 43.3832671,67.368448 43.3832671,65.3677095 L43.3832671,32.3433157 C43.3832671,28.1295557 45.9831552,23.5948111 51.6904559,23.5948111 C57.5328615,23.5948111 59.6060364,28.3071803 59.6060364,32.3433157 L59.6060364,62.7257895 C59.6060364,65.7654942 61.6937007,68.9962142 65.5631832,68.9962142 C67.5552951,68.9962142 69.1252531,68.3530634 70.2295888,67.0844849 C71.6162741,65.4925588 72.199379,62.9747003 71.8297007,60.1764234 C71.7408056,59.5045218 71.319435,57.8164972 70.8737846,56.0296172 C70.0337846,52.6653834 68.9901483,48.4835249 68.7869035,45.8794142 C68.6279105,44.5978388 69.0731692,43.3103557 70.0760783,42.152448 C71.6902881,40.2895557 74.6387077,38.9378757 77.0862601,38.9378757 C79.4202462,38.9378757 82.3103161,40.2675003 83.9582042,42.0992788 C85.0206378,43.2800295 85.5140643,44.5856295 85.3856168,45.8742942 C85.1569175,48.1637218 84.5319105,49.9261834 83.9272671,51.6303557 C83.2078825,53.6574818 82.4638266,55.7531372 82.2351273,59.0598695 C82.1822601,59.7412234 82.1822601,59.7412234 82.1822601,60.0503926 C82.1822601,64.9203003 86.121449,68.8827865 90.9636867,68.8827865 C95.8063161,68.8827865 99.7455049,64.9203003 99.7455049,60.0503926 C99.7455049,55.0981711 96.0600783,51.2183926 91.3552951,51.2183926 L91.3552951,48.0676234 C97.8168336,48.0676234 102.878372,53.3313772 102.878372,60.0503926 C102.878372,66.6575557 97.5337007,72.0335557 90.9636867,72.0335557 C84.3940643,72.0335557 79.049393,66.6575557 79.049393,60.0503926 C79.049393,59.6175557 79.0525259,59.5726572 79.1112671,58.8275003 C79.3685538,55.1025034 80.2230434,52.6949218 80.9761063,50.5716972 C81.567435,48.9053342 82.0780923,47.467008 82.2680224,45.5596111 C82.3056168,45.1866388 82.0808336,44.7085095 81.6347916,44.2130511 C80.581365,43.0417526 78.5406937,42.0886449 77.0862601,42.0886449 C75.5429315,42.0886449 73.4576168,43.0456911 72.4382601,44.2228972 C72.1563021,44.5482142 71.8336168,45.0342203 71.8978406,45.5017157 C72.0822881,47.9309588 73.1400224,52.1683495 73.9118825,55.2627988 C74.4209734,57.3013465 74.8231552,58.9117834 74.9351552,59.7613095 C75.4238825,63.4595249 74.5678266,66.8859865 72.5866797,69.1608418 C70.8851413,71.1143188 68.456386,72.1469834 65.5631832,72.1469834 C59.8735049,72.1469834 56.4731692,67.3570265 56.4731692,62.7257895 Z" id="Fill-10"></path>
                        <path d="M51.1815217,3.74197169 C48.9332979,3.74197169 47.1040951,5.58162708 47.1040951,7.84269785 L47.1040951,12.2931594 C47.1040951,14.554624 48.9332979,16.3942794 51.1815217,16.3942794 C53.4301371,16.3942794 55.2593399,14.554624 55.2593399,12.2931594 L55.2593399,7.84269785 C55.2593399,5.58162708 53.4301371,3.74197169 51.1815217,3.74197169 M51.1815217,19.5450486 C47.2059133,19.5450486 43.971228,16.2918794 43.971228,12.2931594 L43.971228,7.84269785 C43.971228,3.84437169 47.2059133,0.591202462 51.1815217,0.591202462 C55.1575217,0.591202462 58.392207,3.84437169 58.392207,7.84269785 L58.392207,12.2931594 C58.392207,16.2918794 55.1575217,19.5450486 51.1815217,19.5450486" id="Fill-11"></path>
                    </g>
                </g>
                <g id="Group" transform="translate(149.000000, 35.000000)" fill="#FE5F59">
                    <g id="Group-4">
                        <path d="M39.9922325,14.349454 L44.622651,14.349454 L44.622651,41.475819 L39.9922325,41.475819 L39.9922325,14.349454 Z M42.3074417,6.48673947 C41.4254529,6.48673947 40.6537242,6.19189062 39.9922325,5.60218409 C39.3307409,5.01247755 39,4.23713429 39,3.27613105 C39,2.3151278 39.3307409,1.52886421 39.9922325,0.917316693 C40.6537242,0.305769173 41.4254529,0 42.3074417,0 C43.1894306,0 43.9611593,0.305769173 44.622651,0.917316693 C45.2841426,1.52886421 45.6148835,2.3151278 45.6148835,3.27613105 C45.6148835,4.23713429 45.2841426,5.01247755 44.622651,5.60218409 C43.9611593,6.19189062 43.1894306,6.48673947 42.3074417,6.48673947 Z M63.7396642,42 C60.6968026,42 58.2052214,41.3775413 56.2648459,40.1326053 C54.3244704,38.8876693 52.9133093,37.4134251 52.0313205,35.7098284 L55.6033576,33.6786271 C56.3971475,34.9890861 57.4224442,36.0811189 58.6792784,36.9547582 C59.9361125,37.8283975 61.5567428,38.2652106 63.5412177,38.2652106 C65.3933944,38.2652106 66.8266048,37.9048398 67.840892,37.1840874 C68.8551792,36.4633349 69.3623152,35.4695851 69.3623152,34.2028081 C69.3623152,33.4602147 69.2079695,32.8486763 68.8992734,32.3681747 C68.5905773,31.8876731 68.1385647,31.4727007 67.5432223,31.1232449 C66.9478798,30.7737892 66.2092252,30.4570997 65.3272363,30.1731669 C64.4452474,29.8892341 63.408926,29.5725446 62.218241,29.2230889 C61.1598544,28.9173152 60.123533,28.5678647 59.1092458,28.174727 C58.0949586,27.7815893 57.212983,27.2792542 56.4632924,26.6677067 C55.7136019,26.0561592 55.1072436,25.3026566 54.6441994,24.4071763 C54.1811553,23.511696 53.9496367,22.4305836 53.9496367,21.1638066 C53.9496367,18.8049804 54.8205876,16.9812857 56.5625157,15.6926677 C58.3044437,14.4040497 60.4322099,13.7597504 62.9458782,13.7597504 C65.0626515,13.7597504 66.8707016,14.1528822 68.3700827,14.9391576 C69.8694638,15.7254329 71.1042297,16.7956251 72.0744174,18.149766 L68.8992734,20.574103 C68.1936823,19.6130997 67.3558054,18.8595971 66.3856176,18.3135725 C65.4154299,17.767548 64.2688615,17.4945398 62.9458782,17.4945398 C61.4464971,17.4945398 60.2778794,17.8112293 59.43999,18.4446178 C58.6021005,19.0780063 58.1831621,19.9188715 58.1831621,20.9672387 C58.1831621,21.6224682 58.2934091,22.1684846 58.5139063,22.6053042 C58.7344035,23.0421239 59.0982185,23.4243353 59.6053621,23.7519501 C60.1125057,24.0795648 60.7850121,24.385334 61.6229015,24.6692668 C62.460791,24.9531995 63.475063,25.269889 64.6657479,25.6193448 C65.8123335,25.9251185 66.9368524,26.2854893 68.0393385,26.700468 C69.1418246,27.1154467 70.1119978,27.6396224 70.9498872,28.2730109 C71.7877767,28.9063994 72.4602831,29.6817427 72.9674267,30.599064 C73.4745703,31.5163852 73.7281383,32.6302587 73.7281383,33.9407176 C73.7281383,36.2558618 72.9233355,38.1778395 71.3137058,39.7067083 C69.7040761,41.2355771 67.1794209,42 63.7396642,42 Z M80.6136307,41.475819 L80.6136307,5.0214154 L90.7885242,5.0214154 C101.071661,5.0214154 107.241543,10.3287477 107.241543,19.1206921 C107.241543,27.9126365 101.017539,33.1663594 90.7885242,33.1663594 L88.190679,33.1663594 L88.190679,41.475819 L80.6136307,41.475819 Z M88.190679,26.5724011 L90.5720371,26.5724011 C96.7419193,26.5724011 99.448008,24.1063679 99.448008,19.1206921 C99.448008,14.0814069 96.6336758,11.6153737 90.5720371,11.6153737 L88.190679,11.6153737 L88.190679,26.5724011 Z M113.140817,41.475819 L113.140817,5.0214154 L120.717865,5.0214154 L120.717865,34.8818607 L136.385117,34.8818607 L133.378351,41.475819 L113.140817,41.475819 Z M139.794788,41.475819 L155.977199,4.6997589 L156.62666,4.6997589 L173.458532,41.475819 L165.502631,41.475819 L163.770734,37.3478939 L148.833125,37.3478939 L147.101228,41.475819 L139.794788,41.475819 Z M151.376848,31.0755921 L161.064645,31.0755921 L158.412679,24.7496809 C157.330243,22.1764289 156.193686,18.209332 156.193686,18.209332 C156.193686,18.209332 155.11125,22.1764289 154.028815,24.7496809 L151.376848,31.0755921 Z M193.890504,41.9583038 C183.336758,41.9583038 174.947883,34.0241101 174.947883,23.2486172 C174.947883,12.4731244 183.336758,4.59254007 193.890504,4.59254007 C200.547482,4.59254007 205.310198,6.95135442 208.611626,12.044249 L202.820596,16.1185647 C201.0887,13.3308751 198.112002,11.3473266 193.890504,11.3473266 C187.233525,11.3473266 182.741418,16.4402212 182.741418,23.2486172 C182.741418,30.0570132 187.233525,35.2571266 193.890504,35.2571266 C198.65322,35.2571266 201.305187,33.0055311 203.361814,29.8961849 L209.261087,33.9168912 C206.067903,38.8489576 200.980456,41.9583038 193.890504,41.9583038 Z M213.887497,41.475819 L213.887497,5.0214154 L238.242295,5.0214154 L238.242295,11.6153737 L221.464545,11.6153737 L221.464545,23.1950078 L238.242295,23.1950078 L238.242295,29.6281379 L221.464545,29.6281379 L221.464545,34.8818607 L239,34.8818607 L239,41.475819 L213.887497,41.475819 Z" id="DisPLACE"></path>
                        <path d="M3,5 L11.9774859,5 C15.0606783,5 17.8355099,5.43528976 20.3020638,6.30588235 C22.7686177,7.17647494 24.8724116,8.41886448 26.6135084,10.0330882 C28.3546053,11.647312 29.6876126,13.5970474 30.6125704,15.8823529 C31.5375281,18.1676585 32,20.7068488 32,23.5 C32,26.2931512 31.5375281,28.8323415 30.6125704,31.1176471 C29.6876126,33.4029526 28.3636734,35.352688 26.6407129,36.9669118 C24.9177525,38.5811355 22.8139586,39.8235251 20.3292683,40.6941176 C17.8445779,41.5647102 15.0606783,42 11.9774859,42 L3,42 L3,5 Z M11.7054409,38.4632353 C14.4259048,38.4632353 16.8017409,38.1004938 18.8330206,37.375 C20.8643003,36.6495062 22.5509626,35.6247615 23.8930582,34.3007353 C25.2351537,32.9767091 26.2326421,31.3987837 26.8855535,29.5669118 C27.5384648,27.7350399 27.8649156,25.7127562 27.8649156,23.5 C27.8649156,21.2872438 27.5384648,19.2649601 26.8855535,17.4330882 C26.2326421,15.6012163 25.2351537,14.0232909 23.8930582,12.6992647 C22.5509626,11.3752385 20.8643003,10.3504938 18.8330206,9.625 C16.8017409,8.89950618 14.4259048,8.53676471 11.7054409,8.53676471 L6.91744841,8.53676471 L6.91744841,38.4632353 L11.7054409,38.4632353 Z" id="Combined-Shape" stroke="#FE5F59" stroke-width="0.6"></path>
                        <path d="M8.73598838,66.9559507 C8.73599612,66.955986 8.736,66.956 8.736,66.956 C8.736,66.956 8.73600417,66.9559835 8.73601249,66.9559507 L8.73598838,66.9559507 Z M8.73601249,66.9559507 C8.73887038,66.9446776 9.23158602,65.0025259 9.776,63.81 L13.702,54.32 L16.38,54.32 L8.84,72.182 L8.502,72.182 L0.754,54.32 L3.692,54.32 L7.67,63.81 C8.18861429,64.9768822 8.7330902,66.9454744 8.73598838,66.955958 L8.73601249,66.9559507 Z M18.2,67.424 C18.512,69.01 19.656,70.024 21.658,70.024 C23.088,70.024 24.128,69.452 24.752,68.854 L26.286,70.466 C25.272,71.48 23.868,72.234 21.684,72.234 C17.94,72.234 15.522,69.816 15.522,66.54 C15.522,63.29 18.07,60.846 21.346,60.846 C25.064,60.846 27.17,63.602 26.988,67.424 L18.2,67.424 Z M18.2,65.604 L24.336,65.604 C24.102,64.122 23.192,63.03 21.372,63.03 C19.682,63.03 18.512,63.966 18.2,65.604 Z M29.77,72 L29.77,61.08 L32.396,61.08 L32.37,63.134 C33.098,61.418 34.346,60.872 35.542,60.872 C36.322,60.872 36.868,61.054 37.336,61.34 L36.452,63.706 C36.036,63.498 35.62,63.342 35.022,63.342 C33.462,63.342 32.396,64.252 32.396,66.696 L32.396,72 L29.77,72 Z M39.468,72 L39.468,53.228 L42.094,53.228 L42.094,63.004 C42.796,61.652 44.096,60.846 45.734,60.846 C48.152,60.846 49.816,62.562 49.816,65.526 L49.816,72 L47.19,72 L47.19,65.734 C47.19,64.174 46.462,63.264 44.928,63.264 C43.212,63.264 42.094,64.304 42.094,66.072 L42.094,72 L39.468,72 Z M57.538,72.234 C54.756,72.234 52.52,69.816 52.52,66.514 C52.52,63.238 54.704,60.846 57.564,60.846 C59.41,60.846 60.632,61.73 61.308,63.082 L61.282,61.08 L63.908,61.08 L63.908,72 L61.282,72 L61.308,69.972 C60.684,71.272 59.358,72.234 57.538,72.234 Z M58.24,69.92 C60.164,69.92 61.334,68.542 61.334,66.54 C61.334,64.564 60.164,63.186 58.24,63.186 C56.368,63.186 55.25,64.538 55.25,66.514 C55.25,68.542 56.368,69.92 58.24,69.92 Z M67.34,72 L67.34,53.228 L69.966,53.228 L69.966,72 L67.34,72 Z M75.53,67.424 C75.842,69.01 76.986,70.024 78.988,70.024 C80.418,70.024 81.458,69.452 82.082,68.854 L83.616,70.466 C82.602,71.48 81.198,72.234 79.014,72.234 C75.27,72.234 72.852,69.816 72.852,66.54 C72.852,63.29 75.4,60.846 78.676,60.846 C82.394,60.846 84.5,63.602 84.318,67.424 L75.53,67.424 Z M75.53,65.604 L81.666,65.604 C81.432,64.122 80.522,63.03 78.702,63.03 C77.012,63.03 75.842,63.966 75.53,65.604 Z M87.1,72 L87.1,61.08 L89.726,61.08 L89.674,63.108 C90.35,61.678 91.728,60.846 93.366,60.846 C95.784,60.846 97.448,62.562 97.448,65.526 L97.448,72 L94.822,72 L94.822,65.734 C94.822,64.174 94.094,63.264 92.56,63.264 C90.844,63.264 89.726,64.304 89.726,66.072 L89.726,72 L87.1,72 Z M111.982,72.234 C108.68,72.234 106.08,69.79 106.08,66.54 C106.08,63.29 108.68,60.846 111.982,60.846 C115.31,60.846 117.858,63.29 117.858,66.54 C117.858,69.79 115.31,72.234 111.982,72.234 Z M111.982,69.972 C113.932,69.972 115.154,68.542 115.154,66.54 C115.154,64.538 113.932,63.134 111.982,63.134 C110.032,63.134 108.784,64.538 108.784,66.54 C108.784,68.542 110.032,69.972 111.982,69.972 Z M124.773994,68.2819688 C124.773998,68.2819909 124.774,68.282 124.774,68.282 C124.774,68.282 124.774002,68.2819896 124.774007,68.2819688 L124.773994,68.2819688 Z M124.774007,68.2819688 C124.77567,68.274212 125.087044,66.823565 125.476,65.916 L127.686,61.08 L130.364,61.08 L124.826,72.234 L124.488,72.234 L118.898,61.08 L121.81,61.08 L124.02,65.916 C124.434962,66.82373 124.772313,68.2747395 124.773994,68.2819729 L124.774007,68.2819688 Z M134.082,67.424 C134.394,69.01 135.538,70.024 137.54,70.024 C138.97,70.024 140.01,69.452 140.634,68.854 L142.168,70.466 C141.154,71.48 139.75,72.234 137.566,72.234 C133.822,72.234 131.404,69.816 131.404,66.54 C131.404,63.29 133.952,60.846 137.228,60.846 C140.946,60.846 143.052,63.602 142.87,67.424 L134.082,67.424 Z M134.082,65.604 L140.218,65.604 C139.984,64.122 139.074,63.03 137.254,63.03 C135.564,63.03 134.394,63.966 134.082,65.604 Z M145.652,72 L145.652,61.08 L148.278,61.08 L148.252,63.134 C148.98,61.418 150.228,60.872 151.424,60.872 C152.204,60.872 152.75,61.054 153.218,61.34 L152.334,63.706 C151.918,63.498 151.502,63.342 150.904,63.342 C149.344,63.342 148.278,64.252 148.278,66.696 L148.278,72 L145.652,72 Z M161.408,72 L161.408,53.228 L164.034,53.228 L164.034,72 L161.408,72 Z M169.598,67.424 C169.91,69.01 171.054,70.024 173.056,70.024 C174.486,70.024 175.526,69.452 176.15,68.854 L177.684,70.466 C176.67,71.48 175.266,72.234 173.082,72.234 C169.338,72.234 166.92,69.816 166.92,66.54 C166.92,63.29 169.468,60.846 172.744,60.846 C176.462,60.846 178.568,63.602 178.386,67.424 L169.598,67.424 Z M169.598,65.604 L175.734,65.604 C175.5,64.122 174.59,63.03 172.77,63.03 C171.08,63.03 169.91,63.966 169.598,65.604 Z M185.431994,68.2819688 C185.431998,68.2819909 185.432,68.282 185.432,68.282 C185.432,68.282 185.432002,68.2819896 185.432007,68.2819688 L185.431994,68.2819688 Z M185.432007,68.2819688 C185.43367,68.274212 185.745044,66.823565 186.134,65.916 L188.344,61.08 L191.022,61.08 L185.484,72.234 L185.146,72.234 L179.556,61.08 L182.468,61.08 L184.678,65.916 C185.092962,66.82373 185.430313,68.2747395 185.431994,68.2819729 L185.432007,68.2819688 Z M194.74,67.424 C195.052,69.01 196.196,70.024 198.198,70.024 C199.628,70.024 200.668,69.452 201.292,68.854 L202.826,70.466 C201.812,71.48 200.408,72.234 198.224,72.234 C194.48,72.234 192.062,69.816 192.062,66.54 C192.062,63.29 194.61,60.846 197.886,60.846 C201.604,60.846 203.71,63.602 203.528,67.424 L194.74,67.424 Z M194.74,65.604 L200.876,65.604 C200.642,64.122 199.732,63.03 197.912,63.03 C196.222,63.03 195.052,63.966 194.74,65.604 Z M206.31,72 L206.31,61.08 L208.936,61.08 L208.884,63.108 C209.56,61.678 210.938,60.846 212.576,60.846 C214.994,60.846 216.658,62.562 216.658,65.526 L216.658,72 L214.032,72 L214.032,65.734 C214.032,64.174 213.304,63.264 211.77,63.264 C210.054,63.264 208.936,64.304 208.936,66.072 L208.936,72 L206.31,72 Z M225.836,72 L225.836,61.08 L228.462,61.08 L228.41,62.952 C229.138,61.574 230.256,60.846 231.66,60.846 C233.246,60.846 234.286,61.6 234.858,62.926 C235.716,61.626 237.016,60.846 238.602,60.846 C241.176,60.846 242.71,62.562 242.71,65.344 L242.71,72 L240.084,72 L240.084,65.604 C240.084,64.096 239.538,63.264 238.03,63.264 C236.496,63.264 235.586,64.2 235.586,66.02 L235.586,72 L232.96,72 L232.96,65.604 C232.96,64.096 232.44,63.264 230.932,63.264 C229.372,63.264 228.462,64.2 228.462,66.02 L228.462,72 L225.836,72 Z M248.066,67.424 C248.378,69.01 249.522,70.024 251.524,70.024 C252.954,70.024 253.994,69.452 254.618,68.854 L256.152,70.466 C255.138,71.48 253.734,72.234 251.55,72.234 C247.806,72.234 245.388,69.816 245.388,66.54 C245.388,63.29 247.936,60.846 251.212,60.846 C254.93,60.846 257.036,63.602 256.854,67.424 L248.066,67.424 Z M248.066,65.604 L254.202,65.604 C253.968,64.122 253.058,63.03 251.238,63.03 C249.548,63.03 248.378,63.966 248.066,65.604 Z M263.796,72.26 C261.742,72.26 260.338,71.22 260.338,68.308 L260.338,63.29 L258.7,63.29 L258.7,61.08 L260.338,61.08 L260.338,55.386 L262.964,55.386 L262.964,61.08 L265.876,61.08 L265.876,63.29 L262.964,63.29 L262.964,68.36 C262.964,69.608 263.38,69.972 264.056,69.972 C264.68,69.972 265.07,69.686 265.356,69.452 L266.604,71.22 C266.058,71.74 265.2,72.26 263.796,72.26 Z M281.164,72.234 C279.344,72.234 278.018,71.35 277.342,70.024 L277.42,72 L274.768,72 L274.768,53.228 L277.42,53.228 L277.42,62.978 C278.148,61.73 279.37,60.846 281.216,60.846 C284.05,60.846 286.286,63.212 286.286,66.514 C286.286,69.816 283.998,72.234 281.164,72.234 Z M280.488,69.92 C282.386,69.92 283.582,68.568 283.582,66.514 C283.582,64.538 282.386,63.186 280.488,63.186 C278.564,63.186 277.316,64.538 277.316,66.514 C277.316,68.568 278.564,69.92 280.488,69.92 Z M291.226,67.424 C291.538,69.01 292.682,70.024 294.684,70.024 C296.114,70.024 297.154,69.452 297.778,68.854 L299.312,70.466 C298.298,71.48 296.894,72.234 294.71,72.234 C290.966,72.234 288.548,69.816 288.548,66.54 C288.548,63.29 291.096,60.846 294.372,60.846 C298.09,60.846 300.196,63.602 300.014,67.424 L291.226,67.424 Z M291.226,65.604 L297.362,65.604 C297.128,64.122 296.218,63.03 294.398,63.03 C292.708,63.03 291.538,63.966 291.226,65.604 Z M302.796,77.512 L302.796,61.08 L305.448,61.08 L305.37,63.108 C306.072,61.756 307.372,60.846 309.244,60.846 C312.052,60.846 314.314,63.212 314.314,66.514 C314.314,69.816 312.026,72.234 309.192,72.234 C307.372,72.234 306.072,71.35 305.448,70.128 L305.448,77.512 L302.796,77.512 Z M308.516,69.92 C310.414,69.92 311.61,68.568 311.61,66.514 C311.61,64.538 310.414,63.186 308.516,63.186 C306.592,63.186 305.344,64.538 305.344,66.514 C305.344,68.568 306.592,69.92 308.516,69.92 Z M319.254,67.424 C319.566,69.01 320.71,70.024 322.712,70.024 C324.142,70.024 325.182,69.452 325.806,68.854 L327.34,70.466 C326.326,71.48 324.922,72.234 322.738,72.234 C318.994,72.234 316.576,69.816 316.576,66.54 C316.576,63.29 319.124,60.846 322.4,60.846 C326.118,60.846 328.224,63.602 328.042,67.424 L319.254,67.424 Z M319.254,65.604 L325.39,65.604 C325.156,64.122 324.246,63.03 322.426,63.03 C320.736,63.03 319.566,63.966 319.254,65.604 Z M330.824,72 L330.824,61.08 L333.45,61.08 L333.424,63.134 C334.152,61.418 335.4,60.872 336.596,60.872 C337.376,60.872 337.922,61.054 338.39,61.34 L337.506,63.706 C337.09,63.498 336.674,63.342 336.076,63.342 C334.516,63.342 333.45,64.252 333.45,66.696 L333.45,72 L330.824,72 Z M343.148,68.776 L343.148,72 L340.522,72 L340.522,53.228 L343.148,53.228 L343.148,64.07 C343.148,64.746 343.07,65.422 343.018,65.994 L347.386,61.08 L350.376,61.08 L346.346,65.63 L350.922,72 L347.828,72 L344.526,67.346 L343.148,68.776 Z M354.354,58.584 C353.418,58.584 352.612,57.882 352.612,56.842 C352.612,55.854 353.418,55.126 354.354,55.126 C355.29,55.126 356.096,55.854 356.096,56.842 C356.096,57.882 355.29,58.584 354.354,58.584 Z M353.028,72 L353.028,61.08 L355.68,61.08 L355.68,72 L353.028,72 Z M359.086,72 L359.086,61.08 L361.712,61.08 L361.66,63.108 C362.336,61.678 363.714,60.846 365.352,60.846 C367.77,60.846 369.434,62.562 369.434,65.526 L369.434,72 L366.808,72 L366.808,65.734 C366.808,64.174 366.08,63.264 364.546,63.264 C362.83,63.264 361.712,64.304 361.712,66.072 L361.712,72 L359.086,72 Z M377.988,77.772 C375.18,77.772 373.282,76.55 372.294,74.912 L374.192,73.508 C375.05,74.756 376.116,75.562 377.858,75.562 C379.834,75.562 381.03,74.47 381.03,72.026 L381.03,70.128 C380.38,71.35 379.08,72.234 377.26,72.234 C374.426,72.234 372.138,69.816 372.138,66.514 C372.138,63.212 374.426,60.846 377.208,60.846 C379.132,60.846 380.406,61.782 381.108,63.108 L381.03,61.08 L383.656,61.08 L383.656,72.156 C383.656,76.16 381.186,77.772 377.988,77.772 Z M377.936,69.92 C379.86,69.92 381.108,68.568 381.108,66.514 C381.108,64.538 379.86,63.186 377.936,63.186 C376.038,63.186 374.842,64.538 374.842,66.514 C374.842,68.568 376.038,69.92 377.936,69.92 Z M389.116,67.424 C389.428,69.01 390.572,70.024 392.574,70.024 C394.004,70.024 395.044,69.452 395.668,68.854 L397.202,70.466 C396.188,71.48 394.784,72.234 392.6,72.234 C388.856,72.234 386.438,69.816 386.438,66.54 C386.438,63.29 388.986,60.846 392.262,60.846 C395.98,60.846 398.086,63.602 397.904,67.424 L389.116,67.424 Z M389.116,65.604 L395.252,65.604 C395.018,64.122 394.108,63.03 392.288,63.03 C390.598,63.03 389.428,63.966 389.116,65.604 Z M400.686,72 L400.686,61.08 L403.312,61.08 L403.26,63.108 C403.936,61.678 405.314,60.846 406.952,60.846 C409.37,60.846 411.034,62.562 411.034,65.526 L411.034,72 L408.408,72 L408.408,65.734 C408.408,64.174 407.68,63.264 406.146,63.264 C404.43,63.264 403.312,64.304 403.312,66.072 L403.312,72 L400.686,72 Z" id="Verhalen-over-leven"></path>
                    </g>
                </g>
            </g>
        </g>
    </g>
</svg>