<?xml version="1.0" encoding="UTF-8"?>
<svg width="277px" height="55px" viewBox="0 0 277 55" version="1.1" xmlns="http://www.w3.org/2000/svg" xmlns:xlink="http://www.w3.org/1999/xlink">
    <!-- Generator: Sketch 50.2 (55047) - http://www.bohemiancoding.com/sketch -->
    <title>Group 2</title>
    <desc>Created with Sketch.</desc>
    <defs>
        <polygon id="path-1" points="0.0933894754 0.0180061538 44.9406307 0.0180061538 44.9406307 44 0.0933894754 44"></polygon>
    </defs>
    <g id="Design" stroke="none" stroke-width="1" fill="none" fill-rule="evenodd">
        <g id="Mobiel-/-Verhaal-Copy" transform="translate(-13.000000, -12.000000)">
            <g id="Group-2" transform="translate(13.000000, 12.000000)">
                <g id="logo-img">
                    <g id="Group-3" transform="translate(0.321168, 0.000000)">
                        <mask id="mask-2" fill="white">
                            <use xlink:href="#path-1"></use>
                        </mask>
                        <g id="Clip-2"></g>
                        <path d="M44.9406307,22.0090166 C44.9406307,34.1543705 34.9012276,44.0000812 22.5169411,44.0000812 C10.1327926,44.0000812 0.0933894754,34.1543705 0.0933894754,22.0090166 C0.0933894754,9.86366277 10.1327926,0.017952 22.5169411,0.017952 C34.9012276,0.017952 44.9406307,9.86366277 44.9406307,22.0090166" id="Fill-1" fill="#FE5F59" mask="url(#mask-2)"></path>
                    </g>
                    <g id="Group-12" transform="translate(2.000000, 8.000000)" fill="#FEFEFE">
                        <path d="M10.0380485,3.622864 C9.18468019,3.622864 8.4904331,4.30628554 8.4904331,5.14634708 C8.4904331,5.97855631 8.99007646,6.73562708 9.4094028,7.22436554 C9.63673846,7.48931323 9.86297389,7.70389785 10.0373608,7.85607015 C10.571249,7.39021169 11.5856639,6.34693785 11.5856639,5.14634708 C11.5856639,4.30628554 10.8914168,3.622864 10.0380485,3.622864 Z M10.0380485,9.22155938 L9.71746807,8.99533169 C9.62243543,8.92818092 7.3902,7.32725785 7.3902,5.14634708 C7.3902,3.709104 8.57803916,2.53978708 10.0380485,2.53978708 C11.4980578,2.53978708 12.685897,3.709104 12.685897,5.14634708 C12.685897,7.32725785 10.4536615,8.92818092 10.3586289,8.99533169 L10.0380485,9.22155938 Z" id="Fill-4"></path>
                        <path d="M27.5239981,8.90327015 C26.8254876,8.90327015 26.2570797,9.46281477 26.2570797,10.1505686 C26.2570797,10.8383225 26.8254876,11.3978671 27.5239981,11.3978671 C28.2226462,11.3978671 28.7910541,10.8383225 28.7910541,10.1505686 C28.7910541,9.46281477 28.2226462,8.90327015 27.5239981,8.90327015 M27.5239981,12.480944 C26.2188466,12.480944 25.1568466,11.435504 25.1568466,10.1505686 C25.1568466,8.86563323 26.2188466,7.82019323 27.5239981,7.82019323 C28.8292872,7.82019323 29.8912872,8.86563323 29.8912872,10.1505686 C29.8912872,11.435504 28.8292872,12.480944 27.5239981,12.480944" id="Fill-6"></path>
                        <polygon id="Fill-8" points="32.4552704 25.0504985 49.9217459 25.0504985 49.9217459 23.9674215 32.4552704 23.9674215"></polygon>
                        <path d="M20.3149821,21.8119902 L20.3149821,11.3680148 C20.3149821,10.7893809 20.1513224,9.44379323 18.6353387,9.44379323 C16.9057723,9.44379323 16.8181662,11.0466117 16.8181662,11.3680148 L16.8181662,22.7201502 C16.8181662,24.0050855 15.7563037,25.0505255 14.4510147,25.0505255 C13.1531522,25.0505255 12.0956907,24.016864 12.0838632,22.7418117 L11.39608,13.7381932 C11.39608,12.393824 10.3234902,11.7942055 9.87899604,11.603584 C9.48965105,11.8138363 8.58718485,12.441344 8.58718485,13.7381932 L8.58415921,13.7950548 L7.62420583,22.7504763 C7.60770233,24.0214671 6.5521662,25.0505255 5.25719184,25.0505255 L1.43591309,25.0505255 C1.29810256,24.8243517 1.19677403,24.6530909 1.13192749,24.5367432 C1.06708095,24.4203954 0.977705139,24.2494941 0.863800049,24.0240394 L5.25719184,23.9674486 C5.95583986,23.9674486 6.52424779,23.407904 6.52424779,22.7201502 L6.52727343,22.6632886 L7.48708928,13.7088148 C7.50414289,11.3569132 9.56735501,10.5436578 9.65551119,10.5100825 L9.83237366,10.4427963 L10.0137746,10.4968148 C10.8693434,10.7524209 12.4847606,11.7534548 12.4963131,13.7169378 L13.1839587,22.7201502 C13.1839587,23.407904 13.7523667,23.9674486 14.4510147,23.9674486 C15.1495252,23.9674486 15.7179331,23.407904 15.7179331,22.7201502 L15.7179331,11.3680148 C15.7179331,9.91953477 16.630989,8.36071631 18.6353387,8.36071631 C20.6871359,8.36071631 21.4152152,9.98059323 21.4152152,11.3680148 L21.4152152,21.8119902 C21.4152152,22.8568886 22.148383,23.9674486 23.5073084,23.9674486 C24.2069191,23.9674486 24.7582734,23.7463655 25.1461056,23.3102917 C25.6330963,22.7630671 25.8378772,21.8975532 25.7080497,20.9356455 C25.6768305,20.7046794 25.5288492,20.1244209 25.372341,19.5101809 C25.077341,18.3537255 24.7108259,16.9162117 24.6394483,16.0210486 C24.5836114,15.5805071 24.7399821,15.1379348 25.0921942,14.739904 C25.6590893,14.0995348 26.6945462,13.6348948 27.5541033,13.6348948 C28.3737769,13.6348948 29.388742,14.0919532 29.9674646,14.7216271 C30.3405811,15.1275102 30.5138678,15.5763102 30.4687583,16.0192886 C30.3884413,16.8062794 30.1689448,17.4121255 29.9565998,17.9979348 C29.7039587,18.6947594 29.4426534,19.4151409 29.3623364,20.5518302 C29.3437699,20.7860455 29.3437699,20.7860455 29.3437699,20.8923225 C29.3437699,22.5663532 30.7271755,23.9284578 32.4277233,23.9284578 C34.1284086,23.9284578 35.5118142,22.5663532 35.5118142,20.8923225 C35.5118142,19.1899963 34.2175275,17.8563225 32.5652524,17.8563225 L32.5652524,16.7732455 C34.8344832,16.7732455 36.6120473,18.5826609 36.6120473,20.8923225 C36.6120473,23.1635348 34.7350497,25.0115348 32.4277233,25.0115348 C30.1205345,25.0115348 28.2435368,23.1635348 28.2435368,20.8923225 C28.2435368,20.7435348 28.2446371,20.7281009 28.2652664,20.4719532 C28.3556231,19.1914855 28.6557117,18.3638794 28.9201802,17.6340209 C29.1278492,17.0612086 29.3071872,16.566784 29.3738888,15.9111163 C29.3870916,15.7829071 29.3081499,15.6185502 29.1515042,15.4482363 C28.7815508,15.0456025 28.0648865,14.7179717 27.5541033,14.7179717 C27.0121009,14.7179717 26.2797583,15.0469563 25.9217699,15.4516209 C25.822749,15.5634486 25.7094249,15.7305132 25.7319797,15.8912148 C25.7967559,16.7262671 26.1682221,18.1828702 26.4392921,19.2465871 C26.61808,19.9473378 26.7593224,20.5009255 26.7986557,20.7929502 C26.9702921,22.0642117 26.6696534,23.2420578 25.9738935,24.0240394 C25.3763294,24.6955471 24.5233737,25.0505255 23.5073084,25.0505255 C21.5091476,25.0505255 20.3149821,23.4039778 20.3149821,21.8119902 Z" id="Fill-10"></path>
                        <path d="M18.4566058,1.53630277 C17.667051,1.53630277 17.0246524,2.16868431 17.0246524,2.94592738 L17.0246524,4.47577354 C17.0246524,5.253152 17.667051,5.88553354 18.4566058,5.88553354 C19.2462981,5.88553354 19.8886967,5.253152 19.8886967,4.47577354 L19.8886967,2.94592738 C19.8886967,2.16868431 19.2462981,1.53630277 18.4566058,1.53630277 M18.4566058,6.96861046 C17.06041,6.96861046 15.9244193,5.85033354 15.9244193,4.47577354 L15.9244193,2.94592738 C15.9244193,1.57150277 17.06041,0.453225846 18.4566058,0.453225846 C19.8529392,0.453225846 20.9889298,1.57150277 20.9889298,2.94592738 L20.9889298,4.47577354 C20.9889298,5.85033354 19.8529392,6.96861046 18.4566058,6.96861046" id="Fill-11"></path>
                    </g>
                </g>
                <g id="logo-text" transform="translate(54.120000, 12.800000)" fill="#FE5F59">
                    <path d="M5.458,38.298 L1.286,28.68 L2.868,28.68 L5.01,33.79 C5.29,34.42 5.584,35.484 5.584,35.484 C5.584,35.484 5.85,34.434 6.144,33.79 L8.258,28.68 L9.7,28.68 L5.64,38.298 L5.458,38.298 Z M10.68,35.736 C10.848,36.59 11.464,37.136 12.542,37.136 C13.312,37.136 13.872,36.828 14.208,36.506 L15.034,37.374 C14.488,37.92 13.732,38.326 12.556,38.326 C10.54,38.326 9.238,37.024 9.238,35.26 C9.238,33.51 10.61,32.194 12.374,32.194 C14.376,32.194 15.51,33.678 15.412,35.736 L10.68,35.736 Z M10.68,34.756 L13.984,34.756 C13.858,33.958 13.368,33.37 12.388,33.37 C11.478,33.37 10.848,33.874 10.68,34.756 Z M16.91,38.2 L16.91,32.32 L18.324,32.32 L18.31,33.426 C18.702,32.502 19.374,32.208 20.018,32.208 C20.438,32.208 20.732,32.306 20.984,32.46 L20.508,33.734 C20.284,33.622 20.06,33.538 19.738,33.538 C18.898,33.538 18.324,34.028 18.324,35.344 L18.324,38.2 L16.91,38.2 Z M22.132,38.2 L22.132,28.092 L23.546,28.092 L23.546,33.356 C23.924,32.628 24.624,32.194 25.506,32.194 C26.808,32.194 27.704,33.118 27.704,34.714 L27.704,38.2 L26.29,38.2 L26.29,34.826 C26.29,33.986 25.898,33.496 25.072,33.496 C24.148,33.496 23.546,34.056 23.546,35.008 L23.546,38.2 L22.132,38.2 Z M31.862,38.326 C30.364,38.326 29.16,37.024 29.16,35.246 C29.16,33.482 30.336,32.194 31.876,32.194 C32.87,32.194 33.528,32.67 33.892,33.398 L33.878,32.32 L35.292,32.32 L35.292,38.2 L33.878,38.2 L33.892,37.108 C33.556,37.808 32.842,38.326 31.862,38.326 Z M32.24,37.08 C33.276,37.08 33.906,36.338 33.906,35.26 C33.906,34.196 33.276,33.454 32.24,33.454 C31.232,33.454 30.63,34.182 30.63,35.246 C30.63,36.338 31.232,37.08 32.24,37.08 Z M37.14,38.2 L37.14,28.092 L38.554,28.092 L38.554,38.2 L37.14,38.2 Z M41.55,35.736 C41.718,36.59 42.334,37.136 43.412,37.136 C44.182,37.136 44.742,36.828 45.078,36.506 L45.904,37.374 C45.358,37.92 44.602,38.326 43.426,38.326 C41.41,38.326 40.108,37.024 40.108,35.26 C40.108,33.51 41.48,32.194 43.244,32.194 C45.246,32.194 46.38,33.678 46.282,35.736 L41.55,35.736 Z M41.55,34.756 L44.854,34.756 C44.728,33.958 44.238,33.37 43.258,33.37 C42.348,33.37 41.718,33.874 41.55,34.756 Z M47.78,38.2 L47.78,32.32 L49.194,32.32 L49.166,33.412 C49.53,32.642 50.272,32.194 51.154,32.194 C52.456,32.194 53.352,33.118 53.352,34.714 L53.352,38.2 L51.938,38.2 L51.938,34.826 C51.938,33.986 51.546,33.496 50.72,33.496 C49.796,33.496 49.194,34.056 49.194,35.008 L49.194,38.2 L47.78,38.2 Z M61.178,38.326 C59.4,38.326 58,37.01 58,35.26 C58,33.51 59.4,32.194 61.178,32.194 C62.97,32.194 64.342,33.51 64.342,35.26 C64.342,37.01 62.97,38.326 61.178,38.326 Z M61.178,37.108 C62.228,37.108 62.886,36.338 62.886,35.26 C62.886,34.182 62.228,33.426 61.178,33.426 C60.128,33.426 59.456,34.182 59.456,35.26 C59.456,36.338 60.128,37.108 61.178,37.108 Z M68.065994,36.197971 C68.065998,36.1979914 68.066,36.198 68.066,36.198 C68.066,36.198 68.0660021,36.1979903 68.0660062,36.197971 L68.065994,36.197971 Z M68.0660062,36.197971 C68.0671814,36.192493 68.234738,35.4122779 68.444,34.924 L69.634,32.32 L71.076,32.32 L68.094,38.326 L67.912,38.326 L64.902,32.32 L66.47,32.32 L67.66,34.924 C67.8832602,35.4123816 68.0647973,36.1928243 68.065994,36.1979744 L68.0660062,36.197971 Z M73.078,35.736 C73.246,36.59 73.862,37.136 74.94,37.136 C75.71,37.136 76.27,36.828 76.606,36.506 L77.432,37.374 C76.886,37.92 76.13,38.326 74.954,38.326 C72.938,38.326 71.636,37.024 71.636,35.26 C71.636,33.51 73.008,32.194 74.772,32.194 C76.774,32.194 77.908,33.678 77.81,35.736 L73.078,35.736 Z M73.078,34.756 L76.382,34.756 C76.256,33.958 75.766,33.37 74.786,33.37 C73.876,33.37 73.246,33.874 73.078,34.756 Z M79.308,38.2 L79.308,32.32 L80.722,32.32 L80.708,33.426 C81.1,32.502 81.772,32.208 82.416,32.208 C82.836,32.208 83.13,32.306 83.382,32.46 L82.906,33.734 C82.682,33.622 82.458,33.538 82.136,33.538 C81.296,33.538 80.722,34.028 80.722,35.344 L80.722,38.2 L79.308,38.2 Z M87.792,38.2 L87.792,28.092 L89.206,28.092 L89.206,38.2 L87.792,38.2 Z M92.202,35.736 C92.37,36.59 92.986,37.136 94.064,37.136 C94.834,37.136 95.394,36.828 95.73,36.506 L96.556,37.374 C96.01,37.92 95.254,38.326 94.078,38.326 C92.062,38.326 90.76,37.024 90.76,35.26 C90.76,33.51 92.132,32.194 93.896,32.194 C95.898,32.194 97.032,33.678 96.934,35.736 L92.202,35.736 Z M92.202,34.756 L95.506,34.756 C95.38,33.958 94.89,33.37 93.91,33.37 C93,33.37 92.37,33.874 92.202,34.756 Z M100.574,38.326 L97.564,32.32 L99.132,32.32 L100.322,34.924 C100.546,35.414 100.728,36.198 100.728,36.198 C100.728,36.198 100.896,35.414 101.106,34.924 L102.296,32.32 L103.738,32.32 L100.756,38.326 L100.574,38.326 Z M105.74,35.736 C105.908,36.59 106.524,37.136 107.602,37.136 C108.372,37.136 108.932,36.828 109.268,36.506 L110.094,37.374 C109.548,37.92 108.792,38.326 107.616,38.326 C105.6,38.326 104.298,37.024 104.298,35.26 C104.298,33.51 105.67,32.194 107.434,32.194 C109.436,32.194 110.57,33.678 110.472,35.736 L105.74,35.736 Z M105.74,34.756 L109.044,34.756 C108.918,33.958 108.428,33.37 107.448,33.37 C106.538,33.37 105.908,33.874 105.74,34.756 Z M111.97,38.2 L111.97,32.32 L113.384,32.32 L113.356,33.412 C113.72,32.642 114.462,32.194 115.344,32.194 C116.646,32.194 117.542,33.118 117.542,34.714 L117.542,38.2 L116.128,38.2 L116.128,34.826 C116.128,33.986 115.736,33.496 114.91,33.496 C113.986,33.496 113.384,34.056 113.384,35.008 L113.384,38.2 L111.97,38.2 Z M122.484,38.2 L122.484,32.32 L123.898,32.32 L123.87,33.328 C124.262,32.586 124.864,32.194 125.62,32.194 C126.474,32.194 127.034,32.6 127.342,33.314 C127.804,32.614 128.504,32.194 129.358,32.194 C130.744,32.194 131.57,33.118 131.57,34.616 L131.57,38.2 L130.156,38.2 L130.156,34.756 C130.156,33.944 129.862,33.496 129.05,33.496 C128.224,33.496 127.734,34 127.734,34.98 L127.734,38.2 L126.32,38.2 L126.32,34.756 C126.32,33.944 126.04,33.496 125.228,33.496 C124.388,33.496 123.898,34 123.898,34.98 L123.898,38.2 L122.484,38.2 Z M134.454,35.736 C134.622,36.59 135.238,37.136 136.316,37.136 C137.086,37.136 137.646,36.828 137.982,36.506 L138.808,37.374 C138.262,37.92 137.506,38.326 136.33,38.326 C134.314,38.326 133.012,37.024 133.012,35.26 C133.012,33.51 134.384,32.194 136.148,32.194 C138.15,32.194 139.284,33.678 139.186,35.736 L134.454,35.736 Z M134.454,34.756 L137.758,34.756 C137.632,33.958 137.142,33.37 136.162,33.37 C135.252,33.37 134.622,33.874 134.454,34.756 Z M142.924,38.34 C141.818,38.34 141.062,37.78 141.062,36.212 L141.062,33.51 L140.18,33.51 L140.18,32.32 L141.062,32.32 L141.062,29.254 L142.476,29.254 L142.476,32.32 L144.044,32.32 L144.044,33.51 L142.476,33.51 L142.476,36.24 C142.476,36.912 142.7,37.108 143.064,37.108 C143.4,37.108 143.61,36.954 143.764,36.828 L144.436,37.78 C144.142,38.06 143.68,38.34 142.924,38.34 Z M152.276,38.326 C151.296,38.326 150.582,37.85 150.218,37.136 L150.26,38.2 L148.832,38.2 L148.832,28.092 L150.26,28.092 L150.26,33.342 C150.652,32.67 151.31,32.194 152.304,32.194 C153.83,32.194 155.034,33.468 155.034,35.246 C155.034,37.024 153.802,38.326 152.276,38.326 Z M151.912,37.08 C152.934,37.08 153.578,36.352 153.578,35.246 C153.578,34.182 152.934,33.454 151.912,33.454 C150.876,33.454 150.204,34.182 150.204,35.246 C150.204,36.352 150.876,37.08 151.912,37.08 Z M157.694,35.736 C157.862,36.59 158.478,37.136 159.556,37.136 C160.326,37.136 160.886,36.828 161.222,36.506 L162.048,37.374 C161.502,37.92 160.746,38.326 159.57,38.326 C157.554,38.326 156.252,37.024 156.252,35.26 C156.252,33.51 157.624,32.194 159.388,32.194 C161.39,32.194 162.524,33.678 162.426,35.736 L157.694,35.736 Z M157.694,34.756 L160.998,34.756 C160.872,33.958 160.382,33.37 159.402,33.37 C158.492,33.37 157.862,33.874 157.694,34.756 Z M163.924,41.168 L163.924,32.32 L165.352,32.32 L165.31,33.412 C165.688,32.684 166.388,32.194 167.396,32.194 C168.908,32.194 170.126,33.468 170.126,35.246 C170.126,37.024 168.894,38.326 167.368,38.326 C166.388,38.326 165.688,37.85 165.352,37.192 L165.352,41.168 L163.924,41.168 Z M167.004,37.08 C168.026,37.08 168.67,36.352 168.67,35.246 C168.67,34.182 168.026,33.454 167.004,33.454 C165.968,33.454 165.296,34.182 165.296,35.246 C165.296,36.352 165.968,37.08 167.004,37.08 Z M172.786,35.736 C172.954,36.59 173.57,37.136 174.648,37.136 C175.418,37.136 175.978,36.828 176.314,36.506 L177.14,37.374 C176.594,37.92 175.838,38.326 174.662,38.326 C172.646,38.326 171.344,37.024 171.344,35.26 C171.344,33.51 172.716,32.194 174.48,32.194 C176.482,32.194 177.616,33.678 177.518,35.736 L172.786,35.736 Z M172.786,34.756 L176.09,34.756 C175.964,33.958 175.474,33.37 174.494,33.37 C173.584,33.37 172.954,33.874 172.786,34.756 Z M179.016,38.2 L179.016,32.32 L180.43,32.32 L180.416,33.426 C180.808,32.502 181.48,32.208 182.124,32.208 C182.544,32.208 182.838,32.306 183.09,32.46 L182.614,33.734 C182.39,33.622 182.166,33.538 181.844,33.538 C181.004,33.538 180.43,34.028 180.43,35.344 L180.43,38.2 L179.016,38.2 Z M185.652,36.464 L185.652,38.2 L184.238,38.2 L184.238,28.092 L185.652,28.092 L185.652,33.93 C185.652,34.294 185.61,34.658 185.582,34.966 L187.934,32.32 L189.544,32.32 L187.374,34.77 L189.838,38.2 L188.172,38.2 L186.394,35.694 L185.652,36.464 Z M191.686,30.976 C191.182,30.976 190.748,30.598 190.748,30.038 C190.748,29.506 191.182,29.114 191.686,29.114 C192.19,29.114 192.624,29.506 192.624,30.038 C192.624,30.598 192.19,30.976 191.686,30.976 Z M190.972,38.2 L190.972,32.32 L192.4,32.32 L192.4,38.2 L190.972,38.2 Z M194.234,38.2 L194.234,32.32 L195.648,32.32 L195.62,33.412 C195.984,32.642 196.726,32.194 197.608,32.194 C198.91,32.194 199.806,33.118 199.806,34.714 L199.806,38.2 L198.392,38.2 L198.392,34.826 C198.392,33.986 198,33.496 197.174,33.496 C196.25,33.496 195.648,34.056 195.648,35.008 L195.648,38.2 L194.234,38.2 Z M204.412,41.308 C202.9,41.308 201.878,40.65 201.346,39.768 L202.368,39.012 C202.83,39.684 203.404,40.118 204.342,40.118 C205.406,40.118 206.05,39.53 206.05,38.214 L206.05,37.192 C205.7,37.85 205,38.326 204.02,38.326 C202.494,38.326 201.262,37.024 201.262,35.246 C201.262,33.468 202.494,32.194 203.992,32.194 C205.028,32.194 205.714,32.698 206.092,33.412 L206.05,32.32 L207.464,32.32 L207.464,38.284 C207.464,40.44 206.134,41.308 204.412,41.308 Z M204.384,37.08 C205.42,37.08 206.092,36.352 206.092,35.246 C206.092,34.182 205.42,33.454 204.384,33.454 C203.362,33.454 202.718,34.182 202.718,35.246 C202.718,36.352 203.362,37.08 204.384,37.08 Z M210.404,35.736 C210.572,36.59 211.188,37.136 212.266,37.136 C213.036,37.136 213.596,36.828 213.932,36.506 L214.758,37.374 C214.212,37.92 213.456,38.326 212.28,38.326 C210.264,38.326 208.962,37.024 208.962,35.26 C208.962,33.51 210.334,32.194 212.098,32.194 C214.1,32.194 215.234,33.678 215.136,35.736 L210.404,35.736 Z M210.404,34.756 L213.708,34.756 C213.582,33.958 213.092,33.37 212.112,33.37 C211.202,33.37 210.572,33.874 210.404,34.756 Z M216.634,38.2 L216.634,32.32 L218.048,32.32 L218.02,33.412 C218.384,32.642 219.126,32.194 220.008,32.194 C221.31,32.194 222.206,33.118 222.206,34.714 L222.206,38.2 L220.792,38.2 L220.792,34.826 C220.792,33.986 220.4,33.496 219.574,33.496 C218.65,33.496 218.048,34.056 218.048,35.008 L218.048,38.2 L216.634,38.2 Z" id="Verhalen-over-leven"></path>
                    <path d="M19.1962716,6.88773791 L21.4188725,6.88773791 L21.4188725,19.9083931 L19.1962716,19.9083931 L19.1962716,6.88773791 Z M20.307572,3.11363495 C19.8842174,3.11363495 19.5137876,2.9721075 19.1962716,2.68904836 C18.8787556,2.40598922 18.72,2.03382446 18.72,1.5725429 C18.72,1.11126134 18.8787556,0.733854822 19.1962716,0.440312012 C19.5137876,0.146769203 19.8842174,0 20.307572,0 C20.7309267,0 21.1013565,0.146769203 21.4188725,0.440312012 C21.7363885,0.733854822 21.8951441,1.11126134 21.8951441,1.5725429 C21.8951441,2.03382446 21.7363885,2.40598922 21.4188725,2.68904836 C21.1013565,2.9721075 20.7309267,3.11363495 20.307572,3.11363495 Z M30.5950388,20.16 C29.1344653,20.16 27.9385063,19.8612198 27.007126,19.2636505 C26.0757458,18.6660813 25.3983885,17.958444 24.9750338,17.1407176 L26.6896116,16.165741 C27.0706308,16.7947613 27.5627732,17.3189371 28.1660536,17.7382839 C28.769334,18.1576308 29.5472365,18.3673011 30.4997845,18.3673011 C31.3888293,18.3673011 32.0767703,18.1943231 32.5636282,17.8483619 C33.050486,17.5024008 33.2939113,17.0254009 33.2939113,16.4173479 C33.2939113,16.0609031 33.2198253,15.7673646 33.0716512,15.5367239 C32.9234771,15.3060831 32.7065111,15.1068963 32.4207467,14.9391576 C32.1349823,14.7714188 31.7804281,14.6194079 31.3570734,14.4831201 C30.9337188,14.3468324 30.4362845,14.1948214 29.8647557,14.0270827 C29.3567301,13.8803113 28.8592958,13.712575 28.372438,13.523869 C27.8855801,13.3351629 27.4622318,13.094042 27.1023804,12.8004992 C26.7425289,12.5069564 26.4514769,12.1452752 26.2292157,11.7154446 C26.0069545,11.2856141 25.8958256,10.7666801 25.8958256,10.1586271 C25.8958256,9.02639059 26.3138821,8.15101713 27.1500075,7.5324805 C27.986133,6.91394387 29.0074608,6.60468019 30.2140215,6.60468019 C31.2300727,6.60468019 32.0979368,6.79338345 32.8176397,7.17079563 C33.5373426,7.54820782 34.1300302,8.06190003 34.5957204,8.71188768 L33.0716512,9.87556942 C32.7329675,9.41428787 32.3307866,9.05260661 31.8650965,8.79051482 C31.3994063,8.52842303 30.8490535,8.3973791 30.2140215,8.3973791 C29.4943186,8.3973791 28.9333821,8.54939006 28.5311952,8.85341654 C28.1290083,9.15744302 27.9279178,9.56105833 27.9279178,10.0642746 C27.9279178,10.3787847 27.9808364,10.6408726 28.086675,10.850546 C28.1925137,11.0602195 28.3671449,11.243681 28.6105738,11.400936 C28.8540027,11.5581911 29.1768058,11.7049603 29.5789927,11.841248 C29.9811797,11.9775358 30.4680302,12.1295467 31.039559,12.2972855 C31.5899201,12.4440569 32.1296892,12.6170349 32.6588825,12.8162246 C33.1880758,13.0154144 33.653759,13.2670188 34.0559459,13.5710452 C34.4581328,13.8750717 34.7809359,14.2472365 35.0243648,14.6875507 C35.2677938,15.1278649 35.3895064,15.6625242 35.3895064,16.2915445 C35.3895064,17.4028137 35.0032011,18.3253629 34.2305788,19.05922 C33.4579565,19.793077 32.246122,20.16 30.5950388,20.16 Z M38.6945427,19.9083931 L38.6945427,2.41027939 L43.5784916,2.41027939 C48.5143974,2.41027939 51.4759409,4.95779889 51.4759409,9.17793221 C51.4759409,13.3980655 48.4884189,15.9198525 43.5784916,15.9198525 L42.3315259,15.9198525 L42.3315259,19.9083931 L38.6945427,19.9083931 Z M42.3315259,12.7547525 L43.4745778,12.7547525 C46.4361213,12.7547525 47.7350438,11.5710566 47.7350438,9.17793221 C47.7350438,6.75907531 46.3841644,5.57537938 43.4745778,5.57537938 L42.3315259,5.57537938 L42.3315259,12.7547525 Z M54.3075921,19.9083931 L54.3075921,2.41027939 L57.9445753,2.41027939 L57.9445753,16.7432931 L65.4648559,16.7432931 L64.0216086,19.9083931 L54.3075921,19.9083931 Z M67.1014984,19.9083931 L74.8690554,2.25588427 L75.1807968,2.25588427 L83.2600952,19.9083931 L79.4412628,19.9083931 L78.6099524,17.9269891 L71.4398998,17.9269891 L70.6085893,19.9083931 L67.1014984,19.9083931 Z M72.660887,14.9162842 L77.3110298,14.9162842 L76.0380857,11.8798468 C75.5185167,10.6446859 74.9729692,8.74047936 74.9729692,8.74047936 C74.9729692,8.74047936 74.4534002,10.6446859 73.9338311,11.8798468 L72.660887,14.9162842 Z M93.0674417,20.1399858 C88.0016437,20.1399858 83.9749837,16.3315728 83.9749837,11.1593363 C83.9749837,5.9870997 88.0016437,2.20441923 93.0674417,2.20441923 C96.2627913,2.20441923 98.548895,3.33665012 100.133581,5.78123954 L97.3538862,7.73691108 C96.5225758,6.39882003 95.093761,5.44671678 93.0674417,5.44671678 C89.8720922,5.44671678 87.7158807,7.8913062 87.7158807,11.1593363 C87.7158807,14.4273663 89.8720922,16.9234208 93.0674417,16.9234208 C95.3535455,16.9234208 96.6264896,15.8426549 97.6136708,14.3501688 L100.445322,16.2801078 C98.9125933,18.6474996 96.4706189,20.1399858 93.0674417,20.1399858 Z M102.665998,19.9083931 L102.665998,2.41027939 L114.356302,2.41027939 L114.356302,5.57537938 L106.302982,5.57537938 L106.302982,11.1336037 L114.356302,11.1336037 L114.356302,14.2215062 L106.302982,14.2215062 L106.302982,16.7432931 L114.72,16.7432931 L114.72,19.9083931 L102.665998,19.9083931 Z" id="DisPLACE"></path>
                    <path d="M1.44,2.4 L5.74919325,2.4 C7.2291256,2.4 8.56104474,2.60893909 9.74499062,3.02682353 C10.9289365,3.44470797 11.9387575,4.04105495 12.7744841,4.81588235 C13.6102106,5.59070976 14.2500541,6.52658275 14.6940338,7.62352941 C15.1380135,8.72047607 15.36,9.93928741 15.36,11.28 C15.36,12.6207126 15.1380135,13.8395239 14.6940338,14.9364706 C14.2500541,16.0334172 13.6145632,16.9692902 12.7875422,17.7441176 C11.9605212,18.5189451 10.9507001,19.115292 9.75804878,19.5331765 C8.56539741,19.9510609 7.2291256,20.16 5.74919325,20.16 L1.44,20.16 L1.44,2.4 Z M5.61861163,18.4623529 C6.9244343,18.4623529 8.06483565,18.288237 9.03984991,17.94 C10.0148642,17.591763 10.8244621,17.0998855 11.4686679,16.4643529 C12.1128738,15.8288204 12.5916682,15.0714162 12.9050657,14.1921176 C13.2184631,13.3128191 13.3751595,12.342123 13.3751595,11.28 C13.3751595,10.217877 13.2184631,9.24718087 12.9050657,8.36788235 C12.5916682,7.48858384 12.1128738,6.73117965 11.4686679,6.09564706 C10.8244621,5.46011447 10.0148642,4.96823704 9.03984991,4.62 C8.06483565,4.27176296 6.9244343,4.09764706 5.61861163,4.09764706 L3.32037523,4.09764706 L3.32037523,18.4623529 L5.61861163,18.4623529 Z" id="Combined-Shape" stroke="#FE5F59" stroke-width="0.5"></path>
                </g>
            </g>
        </g>
    </g>
</svg>