<?xml version="1.0" encoding="UTF-8"?>
<svg width="2310px" height="683px" viewBox="0 0 2310 683" version="1.1" xmlns="http://www.w3.org/2000/svg" xmlns:xlink="http://www.w3.org/1999/xlink">
    <!-- Generator: Sketch 50.2 (55047) - http://www.bohemiancoding.com/sketch -->
    <title>Logo Copy 2</title>
    <desc>Created with Sketch.</desc>
    <defs></defs>
    <g id="Design" stroke="none" stroke-width="1" fill="none" fill-rule="evenodd">
        <g id="Logo-Copy-2" fill="#000">
            <g id="Group-3" transform="translate(-2489.000000, -925.000000)">
                <path d="M2346.5,397.159177 C2240.62858,397.159177 2154.49821,483.075617 2154.49821,588.684078 C2154.49821,693.305386 2216.48546,788.48065 2268.50834,849.922478 C2296.71228,883.230417 2324.77972,910.206954 2346.41469,929.337318 C2412.65044,870.771852 2538.50179,739.616526 2538.50179,588.684078 C2538.50179,483.075617 2452.37142,397.159177 2346.5,397.159177 Z M2346.5,1101 L2306.72783,1072.55975 C2294.9378,1064.11788 2018,862.8576 2018,588.684078 C2018,408.000851 2165.36688,261 2346.5,261 C2527.63312,261 2675,408.000851 2675,588.684078 C2675,862.8576 2398.0622,1064.11788 2386.27217,1072.55975 L2346.5,1101 Z" id="Fill-1"></path>
                <path d="M4506.4915,1059.94376 C4420.1817,1059.94376 4349.94771,1130.17571 4349.94771,1216.5 C4349.94771,1302.82429 4420.1817,1373.05624 4506.4915,1373.05624 C4592.8183,1373.05624 4663.05229,1302.82429 4663.05229,1216.5 C4663.05229,1130.17571 4592.8183,1059.94376 4506.4915,1059.94376 M4506.4915,1509 C4345.22353,1509 4214,1377.78028 4214,1216.5 C4214,1055.21972 4345.22353,924 4506.4915,924 C4667.77647,924 4799,1055.21972 4799,1216.5 C4799,1377.78028 4667.77647,1509 4506.4915,1509" id="Fill-3"></path>
                <path d="M5118.1171,3088.00675 C4836.94581,3082.87956 4609.79593,2852.36866 4609.79593,2569.79291 C4609.79593,2551.07166 4609.93212,2549.12969 4612.4855,2516.89984 C4623.66933,2355.78462 4660.81256,2251.65084 4693.54696,2159.81619 C4719.25103,2087.74192 4741.44846,2025.5308 4749.7044,1943.03123 C4751.33857,1926.89927 4741.56762,1906.21901 4722.17891,1884.78922 C4676.38821,1834.1277 4587.68362,1792.90347 4524.46181,1792.90347 C4457.37588,1792.90347 4366.73072,1834.29805 4322.42098,1885.21509 C4310.16473,1899.28584 4296.13814,1920.3068 4298.92984,1940.52711 L4299.3554,1944.73471 C4306.94747,2045.59781 4352.92542,2228.87531 4386.47689,2362.71779 C4408.60623,2450.88996 4426.0884,2520.54528 4430.95686,2557.28936 C4452.20102,2717.24621 4414.98969,2865.44904 4328.87253,2963.84209 C4254.90948,3048.33473 4149.33553,3093 4023.57281,3093 C3776.25195,3093 3628.44502,2885.82267 3628.44502,2685.51036 L3628.44502,1371.39419 C3628.44502,1298.58742 3608.18816,1129.27846 3420.54842,1129.27846 C3206.47263,1129.27846 3195.62926,1330.95355 3195.62926,1371.39419 L3195.62926,2799.77985 C3195.62926,2961.45721 3064.19803,3093 2902.63685,3093 C2741.9949,3093 2611.10839,2962.93924 2609.64445,2802.50542 L2524.5146,1669.62257 C2524.5146,1500.46692 2391.75561,1425.01976 2336.73868,1401.03475 C2288.54779,1427.48981 2176.84572,1506.44614 2176.84572,1669.62257 L2176.47122,1676.77718 L2057.65371,2803.59565 C2055.611,2963.51843 1924.96281,3093 1764.67833,3093 L0,3093 L0,2956.72154 L1764.67833,2956.72154 C1851.15296,2956.72154 1921.50723,2886.31668 1921.50723,2799.77985 L1921.88173,2792.62523 L2040.68221,1665.92601 C2042.79301,1369.99733 2298.16554,1267.66924 2309.07701,1263.44461 L2330.96803,1254.97831 L2353.42079,1261.7752 C2459.31817,1293.93691 2659.26523,1419.89228 2660.69513,1666.9481 L2745.80796,2799.77985 C2745.80796,2886.31668 2816.16222,2956.72154 2902.63685,2956.72154 C2989.09447,2956.72154 3059.44873,2886.31668 3059.44873,2799.77985 L3059.44873,1371.39419 C3059.44873,1189.13878 3172.46155,993 3420.54842,993 C3674.50808,993 3764.62554,1196.82148 3764.62554,1371.39419 L3764.62554,2685.51036 C3764.62554,2816.98501 3855.37284,2956.72154 4023.57281,2956.72154 C4110.16661,2956.72154 4178.41007,2928.9037 4226.41371,2874.03458 C4286.69061,2805.17989 4312.03721,2696.27636 4295.96791,2575.24405 C4292.10379,2546.18267 4273.78751,2473.17148 4254.41583,2395.88456 C4217.90242,2250.37323 4172.53729,2069.49764 4163.70257,1956.86349 C4156.79141,1901.43223 4176.14607,1845.74544 4219.74086,1795.66311 C4289.90788,1715.08847 4418.07078,1656.62501 4524.46181,1656.62501 C4625.9163,1656.62501 4751.54284,1714.13452 4823.1738,1793.36341 C4869.35602,1844.43376 4890.80445,1900.90415 4885.22105,1956.64204 C4875.27987,2055.66538 4848.11186,2131.89614 4821.82901,2205.60576 C4790.55856,2293.28391 4758.21569,2383.92613 4748.27451,2526.95037 C4745.97646,2556.42059 4745.97646,2556.42059 4745.97646,2569.79291 C4745.97646,2780.42831 4917.20645,2951.81551 5127.69048,2951.81551 C5338.19153,2951.81551 5509.42152,2780.42831 5509.42152,2569.79291 C5509.42152,2355.59724 5349.22215,2187.78735 5144.71304,2187.78735 L5144.71304,2051.50889 C5425.58538,2051.50889 5645.60204,2279.17909 5645.60204,2569.79291 C5645.60204,2723.4517 5578.4348,2861.71513 5471.93554,2956.71472 L7280,2956.71472 L7280,3092.99319 L5118.11712,3092.99319 L5118.11712,3088.00675 Z" id="Combined-Shape"></path>
            </g>
        </g>
    </g>
</svg>
