<?xml version="1.0" encoding="UTF-8"?>
<svg width="33px" height="23px" viewBox="0 0 33 23" version="1.1" xmlns="http://www.w3.org/2000/svg" xmlns:xlink="http://www.w3.org/1999/xlink">
    <!-- Generator: Sketch 50.2 (55047) - http://www.bohemiancoding.com/sketch -->
    <title>Page 1</title>
    <desc>Created with Sketch.</desc>
    <defs></defs>
    <g id="Symbols" stroke="none" stroke-width="1" fill="none" fill-rule="evenodd">
        <g id="footer" transform="translate(-447.000000, -182.000000)" fill="#FFFFFF">
            <g id="Group" transform="translate(447.000000, 76.000000)">
                <path d="M32.2504019,106.000029 L0.749540497,106.000029 C0.334701153,106.000029 0,106.34359 0,106.76764 L0,128.233795 C0,128.436482 0.0787521535,128.631971 0.219382799,128.775748 C0.360013445,128.919526 0.551268675,129 0.749569297,129 L32.2504307,129 C32.4487169,129 32.6399614,128.9195 32.7806172,128.775748 C32.921273,128.631997 33,128.436497 33,128.233795 L33,106.76764 C33,106.563514 32.9212478,106.369464 32.7806172,106.225687 C32.6399902,106.081939 32.4487313,106 32.2504307,106 L32.2504019,106.000029 Z M31.5008614,123.848012 L23.2656362,119.033841 L31.5008614,114.21967 L31.5008614,123.848012 Z M31.5008614,107.533852 L31.5008614,112.455847 L16.4999712,121.211663 L1.49908135,112.455847 L1.49908135,107.533852 L31.5008614,107.533852 Z M1.49908135,114.21967 L9.73430619,119.033841 L1.49908135,123.848012 L1.49908135,114.21967 Z M1.49908135,127.467657 L1.49908135,125.611835 L11.2488676,119.923664 L16.1244809,122.759837 C16.3551104,122.903585 16.6448032,122.903585 16.8754255,122.759837 L21.7510388,119.923664 L31.5008254,125.611835 L31.5008254,127.467657 L1.49908135,127.467657 Z" id="Page-1"></path>
            </g>
        </g>
    </g>
</svg>