<?xml version="1.0" encoding="UTF-8"?>
<svg width="22px" height="40px" viewBox="0 0 22 40" version="1.1" xmlns="http://www.w3.org/2000/svg" xmlns:xlink="http://www.w3.org/1999/xlink">
    <!-- Generator: Sketch 50.2 (55047) - http://www.bohemiancoding.com/sketch -->
    <title>Fill 1</title>
    <desc>Created with Sketch.</desc>
    <defs></defs>
    <g id="Symbols" stroke="none" stroke-width="1" fill="none" fill-rule="evenodd">
        <g id="footer" transform="translate(-448.000000, -111.000000)" fill="#FFFFFF">
            <g id="Group" transform="translate(447.000000, 76.000000)">
                <path d="M17.0066982,35 C16.5141844,35 16.1863672,35.3335023 16.1863672,35.8345275 L16.1863672,36.3355646 L4.85855004,36.3355646 C2.72379827,36.3355646 1,38.0891946 1,40.26089 L1,71.0746744 C1,73.2463698 2.72379827,75 4.85855004,75 L19.14145,75 C21.2762017,75 23,73.2463698 23,71.0746744 L23,40.3438618 C23,38.1721664 21.2762017,36.4185364 19.14145,36.4185364 L17.8286052,36.4185364 L17.8286052,35.8345275 C17.8286052,35.3334903 17.4176517,35 17.0067376,35 L17.0066982,35 Z M21.357762,71.1576465 C21.357762,72.4102394 20.3727344,73.4123137 19.14145,73.4123137 L4.85855004,73.4123137 C3.62726556,73.4123137 2.64223798,72.4102394 2.64223798,71.1576465 L2.64223798,68.1514233 L21.4393223,68.1514233 L21.4393223,71.1576465 L21.357762,71.1576465 Z M21.357762,66.4823683 L2.64223798,66.4823683 L2.64223798,43.4346597 L21.4393223,43.4346597 L21.4393223,66.4823683 L21.357762,66.4823683 Z M19.14145,38.0062229 C20.3727344,38.0062229 21.357762,39.0082972 21.357762,40.26089 L21.357762,41.6810297 L2.64223798,41.6810297 L2.64223798,40.3439019 C2.64223798,39.091309 3.62726556,38.0892347 4.85855004,38.0892347 L19.14145,38.0892347 L19.14145,38.0062229 Z" id="Fill-1"></path>
            </g>
        </g>
    </g>
</svg>